<svg xmlns="http://www.w3.org/2000/svg" viewBox="0 0 680 220" width="100%" role="img" aria-label="hipFile fio trend">
  <rect width="100%" height="100%" rx="18" fill="#ffffff" stroke="#d9e2f0"/>
  <polyline fill="none" stroke="#0d6efd" stroke-width="4" points="28.0,88.0 51.1,88.0 74.2,88.0 97.3,88.0 120.4,88.0 143.6,88.0 166.7,137.9 189.8,137.9 212.9,137.9 236.0,191.1 259.1,191.5 282.2,192.0 305.3,192.0 328.4,90.3 351.6,107.7 374.7,107.7 397.8,88.0 420.9,88.0 444.0,88.0 467.1,28.0 490.2,28.0 513.3,88.7 536.4,89.5 559.6,89.5 582.7,41.7 605.8,41.7 628.9,88.0 652.0,97.1"/>
  <text x="28" y="34" fill="#111827" font-family="system-ui,sans-serif" font-size="18" font-weight="700">hipFile fio</text>
  <text x="28" y="56" fill="#4b5563" font-family="system-ui,sans-serif" font-size="12">oldest run at left, newest at right</text>
  <text x="28" y="190" fill="#6b7280" font-family="system-ui,sans-serif" font-size="12">4cf27216</text>
  <text x="652" y="190" text-anchor="end" fill="#6b7280" font-family="system-ui,sans-serif" font-size="12">86cb5326</text>
  <text x="652" y="34" text-anchor="end" fill="#111827" font-family="system-ui,sans-serif" font-size="14" font-weight="700">latest: 135 MB/s</text>
</svg>
