<svg xmlns="http://www.w3.org/2000/svg" viewBox="0 0 680 220" width="100%" role="img" aria-label="rocjitsu hipFile trend">
  <rect width="100%" height="100%" rx="18" fill="#ffffff" stroke="#d9e2f0"/>
  <polyline fill="none" stroke="#198754" stroke-width="4" points="28.0,40.6 55.1,40.6 82.3,40.6 109.4,40.6 136.5,40.6 163.7,40.6 190.8,192.0 217.9,192.0 245.0,192.0 272.2,192.0 299.3,192.0 326.4,192.0 353.6,192.0 380.7,32.2 407.8,28.0 435.0,28.0 462.1,49.0 489.2,49.0 516.3,49.0 543.5,49.0 570.6,49.0 597.7,49.0 624.9,49.0 652.0,49.0"/>
  <text x="28" y="34" fill="#111827" font-family="system-ui,sans-serif" font-size="18" font-weight="700">rocjitsu hipFile</text>
  <text x="28" y="56" fill="#4b5563" font-family="system-ui,sans-serif" font-size="12">oldest run at left, newest at right</text>
  <text x="28" y="190" fill="#6b7280" font-family="system-ui,sans-serif" font-size="12">4cf27216</text>
  <text x="652" y="190" text-anchor="end" fill="#6b7280" font-family="system-ui,sans-serif" font-size="12">37d6f802</text>
  <text x="652" y="34" text-anchor="end" fill="#111827" font-family="system-ui,sans-serif" font-size="14" font-weight="700">latest: 157 MB/s</text>
</svg>
