<svg xmlns="http://www.w3.org/2000/svg" viewBox="0 0 680 220" width="100%" role="img" aria-label="rocjitsu GEMM trend">
  <rect width="100%" height="100%" rx="18" fill="#ffffff" stroke="#d9e2f0"/>
  <polyline fill="none" stroke="#d94b52" stroke-width="4" points="28.0,153.8 52.0,153.8 76.0,153.8 100.0,153.8 124.0,153.8 148.0,153.8 172.0,28.0 196.0,28.0 220.0,28.0 244.0,28.0 268.0,28.0 292.0,28.0 316.0,28.0 340.0,152.7 364.0,155.6 388.0,155.6 412.0,156.8 436.0,156.8 460.0,156.8 484.0,156.8 508.0,156.8 532.0,156.8 556.0,156.8 580.0,156.8 604.0,156.8 628.0,156.8 652.0,192.0"/>
  <text x="28" y="34" fill="#111827" font-family="system-ui,sans-serif" font-size="18" font-weight="700">rocjitsu GEMM</text>
  <text x="28" y="56" fill="#4b5563" font-family="system-ui,sans-serif" font-size="12">oldest run at left, newest at right</text>
  <text x="28" y="190" fill="#6b7280" font-family="system-ui,sans-serif" font-size="12">4cf27216</text>
  <text x="652" y="190" text-anchor="end" fill="#6b7280" font-family="system-ui,sans-serif" font-size="12">86cb5326</text>
  <text x="652" y="34" text-anchor="end" fill="#111827" font-family="system-ui,sans-serif" font-size="14" font-weight="700">latest: 381 kFLOP/s</text>
</svg>
