<svg xmlns="http://www.w3.org/2000/svg" viewBox="0 0 680 220" width="100%" role="img" aria-label="rocjitsu hipFile trend">
  <rect width="100%" height="100%" rx="18" fill="#ffffff" stroke="#d9e2f0"/>
  <polyline fill="none" stroke="#198754" stroke-width="4" points="28.0,40.6 56.4,40.6 84.7,40.6 113.1,40.6 141.5,40.6 169.8,40.6 198.2,192.0 226.5,192.0 254.9,192.0 283.3,192.0 311.6,192.0 340.0,192.0 368.4,192.0 396.7,32.2 425.1,28.0 453.5,28.0 481.8,49.0 510.2,49.0 538.5,49.0 566.9,49.0 595.3,49.0 623.6,49.0 652.0,49.0"/>
  <text x="28" y="34" fill="#111827" font-family="system-ui,sans-serif" font-size="18" font-weight="700">rocjitsu hipFile</text>
  <text x="28" y="56" fill="#4b5563" font-family="system-ui,sans-serif" font-size="12">oldest run at left, newest at right</text>
  <text x="28" y="190" fill="#6b7280" font-family="system-ui,sans-serif" font-size="12">4cf27216</text>
  <text x="652" y="190" text-anchor="end" fill="#6b7280" font-family="system-ui,sans-serif" font-size="12">6d2d4f93</text>
  <text x="652" y="34" text-anchor="end" fill="#111827" font-family="system-ui,sans-serif" font-size="14" font-weight="700">latest: 157 MB/s</text>
</svg>
